# xmcd CD database file
#
# Track frame offsets:
#	150
#	20202
#	40518
#	60362
#	87784
#	109944
#	127494
#	146398
#	163064
#	193447
#	213271
#	233503
#
# Disc length: 3582 seconds
#
# Revision: 7
# Processed by: cddbd v1.5.2PL0 Copyright (c) Steve Scherf et al.
# Submitted via: CDex 1.70
#
DISCID=a80dfc0c
DTITLE=Songs Of ERIC CLAPTON - Blues Power
DYEAR=1999
DGENRE=Blues
TTITLE0=(Larry McCray)Miss You
TTITLE1=(Koko Taylor)Blues Power
TTITLE2=(Otis Clay)Wonderful Tonight
TTITLE3=(Carl Weathersby)Lay Down Sally
TTITLE4=(Buddy Guy)Strange Brew
TTITLE5=(Bo Diddley)Before You Accuse Me
TTITLE6=(Joe Louis Waller With James Cotton)Roll It Over
TTITLE7=(Honeyboy Edwards With James Cotton)Crossroads
TTITLE8=(Otis Rush)Old Love
TTITLE9=(Pinetop Perkins With John Hammond - Bob Margolin)Too Bad
TTITLE10=(Ann Peebles)Tears In Heaven
TTITLE11=(Eric Gales With Derek Trucks)Layla
EXTD=YEAR: 1999
EXTT0=
EXTT1=
EXTT2=
EXTT3=
EXTT4=
EXTT5=
EXTT6=
EXTT7=
EXTT8=
EXTT9=
EXTT10=
EXTT11=
PLAYORDER=
